<?xml version="1.0" encoding="utf-8"?>
<!-- Generator: Adobe Illustrator 21.1.0, SVG Export Plug-In . SVG Version: 6.00 Build 0)  -->
<svg version="1.1" id="Layer_1" xmlns="http://www.w3.org/2000/svg" xmlns:xlink="http://www.w3.org/1999/xlink" x="0px" y="0px"
	 width="200px" height="200px" viewBox="0 0 200 200" enable-background="new 0 0 200 200" xml:space="preserve">
<g>
	<path fill="#23BEA1" d="M26.3,119.3h-7.7L4.6,84h7c0.6,0,1.1,0.1,1.6,0.4c0.4,0.3,0.7,0.7,0.9,1.1l6.8,18.8c0.4,1.1,0.7,2.2,1,3.2
		c0.3,1.1,0.5,2.1,0.7,3.2c0.2-1.1,0.4-2.1,0.7-3.2c0.3-1.1,0.6-2.1,1-3.2l7-18.8c0.2-0.5,0.4-0.8,0.9-1.1c0.4-0.3,0.9-0.4,1.5-0.4
		h6.7L26.3,119.3z"/>
	<path fill="#23BEA1" d="M70.7,119.3h-3.8c-0.8,0-1.4-0.1-1.9-0.4c-0.5-0.2-0.8-0.7-1-1.5l-0.8-2.5c-0.9,0.8-1.8,1.5-2.6,2.1
		c-0.9,0.6-1.7,1.1-2.7,1.5c-0.9,0.4-1.9,0.7-2.9,0.9c-1,0.2-2.2,0.3-3.4,0.3c-1.5,0-2.9-0.2-4.1-0.6c-1.3-0.4-2.3-1-3.2-1.8
		c-0.9-0.8-1.6-1.8-2.1-3s-0.8-2.6-0.8-4.2c0-1.3,0.3-2.6,1-3.9c0.7-1.3,1.9-2.5,3.5-3.5s3.8-1.9,6.5-2.6c2.7-0.7,6.1-1,10.1-1V97
		c0-2.4-0.5-4.1-1.5-5.3S58.5,90,56.6,90c-1.4,0-2.5,0.2-3.4,0.5c-0.9,0.3-1.7,0.7-2.4,1.1c-0.7,0.4-1.3,0.8-1.9,1.1
		c-0.6,0.3-1.2,0.5-1.9,0.5c-0.6,0-1.1-0.1-1.5-0.4c-0.4-0.3-0.7-0.7-1-1.1L43,88.9c4.1-3.7,8.9-5.6,14.7-5.6c2.1,0,3.9,0.3,5.5,1
		s3,1.6,4.1,2.8c1.1,1.2,2,2.6,2.6,4.3c0.6,1.7,0.9,3.5,0.9,5.5V119.3z M54.2,114c0.9,0,1.7-0.1,2.4-0.2c0.7-0.2,1.4-0.4,2.1-0.7
		c0.7-0.3,1.3-0.7,1.9-1.2c0.6-0.5,1.2-1,1.8-1.6v-5.9c-2.5,0-4.5,0.2-6.2,0.5c-1.7,0.3-3,0.7-4,1.2c-1,0.5-1.7,1.1-2.1,1.7
		c-0.4,0.6-0.6,1.3-0.6,2.1c0,1.5,0.4,2.6,1.3,3.2C51.6,113.6,52.8,114,54.2,114z"/>
	<path fill="#23BEA1" d="M86.3,68.2v51.1h-8.5V68.2H86.3z"/>
	<path fill="#23BEA1" d="M103.9,73.7c0,0.7-0.2,1.4-0.4,2.1c-0.3,0.6-0.7,1.2-1.2,1.7c-0.5,0.5-1.1,0.9-1.7,1.2
		c-0.7,0.3-1.4,0.4-2.1,0.4c-0.7,0-1.4-0.1-2.1-0.4c-0.7-0.3-1.2-0.7-1.7-1.2s-0.9-1-1.2-1.7c-0.3-0.6-0.4-1.3-0.4-2.1
		c0-0.8,0.1-1.5,0.4-2.1c0.3-0.7,0.7-1.2,1.2-1.7c0.5-0.5,1-0.9,1.7-1.2s1.3-0.4,2.1-0.4c0.8,0,1.5,0.1,2.1,0.4
		c0.7,0.3,1.2,0.7,1.7,1.2c0.5,0.5,0.9,1.1,1.2,1.7C103.8,72.3,103.9,73,103.9,73.7z M102.6,84v35.3h-8.5V84H102.6z"/>
	<path fill="#23BEA1" d="M135.4,119.3c-1.1,0-1.8-0.5-2.2-1.5l-0.7-3.4c-0.7,0.8-1.5,1.6-2.3,2.2c-0.8,0.7-1.7,1.2-2.6,1.7
		c-0.9,0.5-1.9,0.9-3,1.1c-1.1,0.3-2.2,0.4-3.5,0.4c-1.9,0-3.7-0.4-5.3-1.2c-1.6-0.8-3-2-4.1-3.5c-1.2-1.5-2.1-3.4-2.7-5.7
		c-0.6-2.2-0.9-4.8-0.9-7.7c0-2.6,0.4-5,1.1-7.3c0.7-2.2,1.7-4.2,3.1-5.8c1.3-1.6,2.9-2.9,4.8-3.9c1.9-0.9,3.9-1.4,6.3-1.4
		c2,0,3.7,0.3,5.1,0.9c1.4,0.6,2.6,1.5,3.7,2.5V68.2h8.5v51.1H135.4z M124,113c1.8,0,3.3-0.4,4.5-1.1c1.2-0.7,2.4-1.8,3.5-3.1V93
		c-1-1.2-2-2-3.1-2.5c-1.1-0.5-2.4-0.7-3.7-0.7c-1.3,0-2.4,0.2-3.5,0.7c-1,0.5-1.9,1.2-2.6,2.2s-1.3,2.2-1.7,3.7
		c-0.4,1.5-0.6,3.3-0.6,5.3c0,2.1,0.2,3.8,0.5,5.2c0.3,1.4,0.8,2.6,1.4,3.5c0.6,0.9,1.4,1.6,2.3,2C122,112.8,122.9,113,124,113z"/>
	<path fill="#23BEA1" d="M158,73.7c0,0.7-0.1,1.4-0.4,2.1c-0.3,0.6-0.7,1.2-1.2,1.7c-0.5,0.5-1.1,0.9-1.7,1.2
		c-0.7,0.3-1.4,0.4-2.1,0.4c-0.7,0-1.4-0.1-2.1-0.4c-0.7-0.3-1.2-0.7-1.7-1.2s-0.9-1-1.2-1.7c-0.3-0.6-0.4-1.3-0.4-2.1
		c0-0.8,0.1-1.5,0.4-2.1c0.3-0.7,0.7-1.2,1.2-1.7c0.5-0.5,1-0.9,1.7-1.2s1.3-0.4,2.1-0.4c0.8,0,1.5,0.1,2.1,0.4
		c0.7,0.3,1.2,0.7,1.7,1.2c0.5,0.5,0.9,1.1,1.2,1.7C157.8,72.3,158,73,158,73.7z M156.7,84v35.3h-8.5V84H156.7z"/>
	<path fill="#23BEA1" d="M164.3,119.3V84h5.2c1.1,0,1.8,0.5,2.2,1.5l0.6,2.8c0.7-0.7,1.5-1.4,2.3-2c0.8-0.6,1.6-1.1,2.5-1.5
		c0.9-0.4,1.8-0.8,2.8-1c1-0.2,2.1-0.3,3.3-0.3c1.9,0,3.6,0.3,5.1,1c1.5,0.7,2.7,1.6,3.7,2.7c1,1.2,1.8,2.6,2.3,4.2
		c0.5,1.6,0.8,3.4,0.8,5.4v22.4h-8.5V96.8c0-2.2-0.5-3.8-1.5-5c-1-1.2-2.5-1.8-4.5-1.8c-1.5,0-2.8,0.3-4.1,1
		c-1.3,0.7-2.5,1.6-3.6,2.7v25.5H164.3z"/>
</g>
<g>
</g>
<g>
</g>
<g>
</g>
<g>
</g>
<g>
</g>
<g>
</g>
<g>
</g>
<g>
</g>
<g>
</g>
<g>
</g>
<g>
</g>
<g>
</g>
<g>
</g>
<g>
</g>
<g>
</g>
</svg>
